
<svg
  xmlns="http://www.w3.org/2000/svg"
  viewBox="0 0 512 512"
>
  <defs>
    <linearGradient id="shieldGradient" x1="0%" y1="0%" x2="0%" y2="100%">
      <stop offset="0%" stop-color="#4DF3FF" />
      <stop offset="50%" stop-color="#04D4FF" />
      <stop offset="100%" stop-color="#08FF9C" />
    </linearGradient>
    <linearGradient id="innerGradient" x1="0%" y1="0%" x2="0%" y2="100%">
      <stop offset="0%" stop-color="#051729" />
      <stop offset="100%" stop-color="#021019" />
    </linearGradient>
    <linearGradient id="outlineGradient" x1="0%" y1="0%" x2="0%" y2="100%">
      <stop offset="0%" stop-color="#7BFCFF" />
      <stop offset="100%" stop-color="#4DFFBA" />
    </linearGradient>
  </defs>
  <path
    d="M256 24
       80 86
       80 208
       80 240
       92 296
       120 352
       160 400
       212 438
       256 458
       300 438
       352 400
       392 352
       420 296
       432 240
       432 208
       432 86
       Z"
    fill="url(#shieldGradient)"
    stroke="url(#outlineGradient)"
    stroke-width="14"
    stroke-linejoin="round"
  />
  <path
    d="M256 72
       124 120
       124 208
       124 234
       134 280
       158 320
       190 352
       224 376
       256 390
       288 376
       322 352
       354 320
       378 280
       388 234
       388 208
       388 120
       Z"
    fill="url(#innerGradient)"
    stroke="#02141f"
    stroke-width="8"
    stroke-linejoin="round"
  />
  <path
    d="M256 112
       164 146
       164 210
       164 236
       174 264
       192 288
       212 306
       234 318
       256 326
       278 318
       300 306
       320 288
       338 264
       348 236
       348 210
       348 146
       Z"
    fill="none"
    stroke="#1AD2FF"
    stroke-width="10"
    stroke-linejoin="round"
  />
  <path
    d="M256 148
       188 172
       188 208
       188 226
       196 246
       210 262
       224 272
       240 280
       256 284
       272 280
       288 272
       302 262
       316 246
       324 226
       324 208
       324 172
       Z"
    fill="none"
    stroke="#3BF8BD"
    stroke-width="9"
    stroke-linejoin="round"
  />
  <path
    d="M256 192
       c-22 0 -40 18 -40 40
       c0 14 7 26 18 33
       l-10 54
       c-1 6 3 11 9 11h46
       c6 0 10 -5 9 -11l-10 -54
       c11 -7 18 -19 18 -33
       c0 -22 -18 -40 -40 -40z"
    fill="#0DF0B1"
    stroke="#061824"
    stroke-width="8"
    stroke-linejoin="round"
  />
  <path
    d="M200 140
       l56 -20
       56 20
       c4 1 6 5 5 9
       l-4 16
       c-1 4 -5 6 -9 5
       l-48 -14
       -48 14
       c-4 1 -8 -1 -9 -5
       l-4 -16
       c-1 -4 1 -8 5 -9z"
    fill="#16E4FF"
    stroke="#02141f"
    stroke-width="6"
    stroke-linejoin="round"
  />
</svg>
